<svg id="Layer_1" data-name="Layer 1" xmlns="http://www.w3.org/2000/svg" viewBox="0 0 186.76 129.1"><defs><style>.cls-1{fill:#2d2d2d;}</style></defs><title>TB</title><path class="cls-1" d="M57.6,23.59H74.14l2.74,19.47H89.32l-.44-28H.55L0,43.06H12.55L15.3,23.59H31.72C32,36.3,32,49.05,32,61.73v5.56c0,12.59-.06,25-.29,37.26L19,105.85v8.08H70.48v-8.08l-12.89-1.28c-.23-12.43-.3-24.91-.3-37.38V61.73C57.29,48.83,57.35,36.11,57.6,23.59Z"/><path class="cls-1" d="M186.76,86.18c0-13.48-9-22.57-31.48-25.14,19.77-3.58,25.65-12.42,25.65-22.69,0-11.74-7.5-20.93-26.93-22.87V0H141.37V15.09H134V0H121.37V15.09H97.25v8.08l11.28,1.16c.24,12.68.3,25.4.3,38.05v4.37c0,12.84-.06,25.46-.3,37.93l-11.28,1.17v8.08h24.12V129.1H134V113.93h6.1l1.27,0V129.1H154v-16C179.89,109.8,186.76,97.05,186.76,86.18ZM139.25,23.75c11.81,0,17.28,5.35,17.28,16.48,0,11.89-5.91,18.08-18.66,18.08h-4.21c0-11.67.08-23.2.3-34.56Zm-.38,81.52h-5c-.25-12.76-.26-25.63-.26-39h5.1c15,0,22.1,6,22.1,19.66C160.86,98.66,152.79,105.27,138.87,105.27Z"/></svg>